HIERARCHY
ROOT Hips
{
  OFFSET 5.80788e-005 67.184 3.4734
  CHANNELS 6 Xposition Yposition Zposition Zrotation Xrotation Yrotation
  JOINT Chest
  {
    OFFSET 0 8.7983 -4.7612
    CHANNELS 3 Zrotation Xrotation Yrotation
    JOINT Chest2
    {
      OFFSET 0 8.0291 0.4195
      CHANNELS 3 Zrotation Xrotation Yrotation
      JOINT Chest3
      {
        OFFSET 0 9.9351 -2.2114
        CHANNELS 3 Zrotation Xrotation Yrotation
        JOINT Neck
        {
          OFFSET 0 22.3885 -0.4656
          CHANNELS 3 Zrotation Xrotation Yrotation
          JOINT Head
          {
            OFFSET -0.0001 12.643 3.4389
            CHANNELS 3 Zrotation Xrotation Yrotation
            End Site
            {
              OFFSET 0.0001 17.6655 0.5274
            }
          }
        }
        JOINT LeftCollar
        {
          OFFSET 2.2603 21.606 7.4023
          CHANNELS 3 Zrotation Xrotation Yrotation
          JOINT LeftShoulder
          {
            OFFSET 13.5163 -1.1332 -5.0146
            CHANNELS 3 Zrotation Xrotation Yrotation
            JOINT LeftElbow
            {
              OFFSET -0.0995 -28.05 -0.2431
              CHANNELS 3 Zrotation Xrotation Yrotation
              JOINT LeftWrist
              {
                OFFSET 0.0679 -23.3996 -0.1402
                CHANNELS 3 Zrotation Xrotation Yrotation
                JOINT LeftFinger1
                {
                  OFFSET 0.7932 -9.069 2.5189
                  CHANNELS 3 Zrotation Xrotation Yrotation
                  JOINT LeftFinger11
                  {
                    OFFSET -0.8272 -3.3923 0.5977
                    CHANNELS 3 Zrotation Xrotation Yrotation
                    JOINT LeftFinger12
                    {
                      OFFSET -0.5649 -2.3158 0.4082
                      CHANNELS 3 Zrotation Xrotation Yrotation
                      End Site
                      {
                        OFFSET -0.4919 -1.6479 0.2673
                      }
                    }
                  }
                }
                JOINT LeftFinger2
                {
                  OFFSET 0.9159 -9.2044 0.2193
                  CHANNELS 3 Zrotation Xrotation Yrotation
                  JOINT LeftFinger21
                  {
                    OFFSET 0.0117 -4.1944 -0.0248
                    CHANNELS 3 Zrotation Xrotation Yrotation
                    JOINT LeftFinger22
                    {
                      OFFSET 0.0071 -2.3249 -0.0142
                      CHANNELS 3 Zrotation Xrotation Yrotation
                      End Site
                      {
                        OFFSET -0.1475 -2.0882 0.0028
                      }
                    }
                  }
                }
                JOINT LeftFinger3
                {
                  OFFSET 0.6113 -8.7231 -2.0637
                  CHANNELS 3 Zrotation Xrotation Yrotation
                  JOINT LeftFinger31
                  {
                    OFFSET -0.1927 -3.8059 -0.2383
                    CHANNELS 3 Zrotation Xrotation Yrotation
                    JOINT LeftFinger32
                    {
                      OFFSET -0.1091 -2.1688 -0.1362
                      CHANNELS 3 Zrotation Xrotation Yrotation
                      End Site
                      {
                        OFFSET -0.2358 -1.9176 -0.0906
                      }
                    }
                  }
                }
                JOINT LeftFinger4
                {
                  OFFSET -0.6151 -8.0947 -3.5641
                  CHANNELS 3 Zrotation Xrotation Yrotation
                  JOINT LeftFinger41
                  {
                    OFFSET -0.4882 -2.341 -0.6462
                    CHANNELS 3 Zrotation Xrotation Yrotation
                    JOINT LeftFinger42
                    {
                      OFFSET -0.3575 -1.7167 -0.4742
                      CHANNELS 3 Zrotation Xrotation Yrotation
                      End Site
                      {
                        OFFSET -0.4187 -1.5237 -0.3496
                      }
                    }
                  }
                }
                JOINT LeftFinger0
                {
                  OFFSET -1.42 -1.8761 1.4223
                  CHANNELS 3 Zrotation Xrotation Yrotation
                  JOINT LeftFinger01
                  {
                    OFFSET -1.1471 -3.4929 2.6334
                    CHANNELS 3 Zrotation Xrotation Yrotation
                    JOINT LeftFinger02
                    {
                      OFFSET -0.823 -2.3 1.6571
                      CHANNELS 3 Zrotation Xrotation Yrotation
                      End Site
                      {
                        OFFSET -0.5822 -1.6914 1.1582
                      }
                    }
                  }
                }
              }
            }
          }
        }
        JOINT RightCollar
        {
          OFFSET -2.2603 21.606 7.4023
          CHANNELS 3 Zrotation Xrotation Yrotation
          JOINT RightShoulder
          {
            OFFSET -13.5187 -1.1334 -5.0155
            CHANNELS 3 Zrotation Xrotation Yrotation
            JOINT RightElbow
            {
              OFFSET 0.0994 -28.0499 -0.2431
              CHANNELS 3 Zrotation Xrotation Yrotation
              JOINT RightWrist
              {
                OFFSET -0.0679 -23.3996 -0.1402
                CHANNELS 3 Zrotation Xrotation Yrotation
                JOINT RightFinger1
                {
                  OFFSET -0.7932 -9.0691 2.5189
                  CHANNELS 3 Zrotation Xrotation Yrotation
                  JOINT RightFinger11
                  {
                    OFFSET 0.8272 -3.3923 0.5977
                    CHANNELS 3 Zrotation Xrotation Yrotation
                    JOINT RightFinger12
                    {
                      OFFSET 0.565 -2.3158 0.4082
                      CHANNELS 3 Zrotation Xrotation Yrotation
                      End Site
                      {
                        OFFSET 0.4919 -1.6479 0.2673
                      }
                    }
                  }
                }
                JOINT RightFinger2
                {
                  OFFSET -0.916 -9.2044 0.2193
                  CHANNELS 3 Zrotation Xrotation Yrotation
                  JOINT RightFinger21
                  {
                    OFFSET -0.0117 -4.1944 -0.0248
                    CHANNELS 3 Zrotation Xrotation Yrotation
                    JOINT RightFinger22
                    {
                      OFFSET -0.0071 -2.3249 -0.0142
                      CHANNELS 3 Zrotation Xrotation Yrotation
                      End Site
                      {
                        OFFSET 0.1475 -2.0882 0.0028
                      }
                    }
                  }
                }
                JOINT RightFinger3
                {
                  OFFSET -0.6113 -8.7231 -2.0637
                  CHANNELS 3 Zrotation Xrotation Yrotation
                  JOINT RightFinger31
                  {
                    OFFSET 0.1927 -3.8059 -0.2383
                    CHANNELS 3 Zrotation Xrotation Yrotation
                    JOINT RightFinger32
                    {
                      OFFSET 0.1091 -2.1688 -0.1362
                      CHANNELS 3 Zrotation Xrotation Yrotation
                      End Site
                      {
                        OFFSET 0.2358 -1.9176 -0.0906
                      }
                    }
                  }
                }
                JOINT RightFinger4
                {
                  OFFSET 0.6151 -8.0947 -3.564
                  CHANNELS 3 Zrotation Xrotation Yrotation
                  JOINT RightFinger41
                  {
                    OFFSET 0.4882 -2.341 -0.6462
                    CHANNELS 3 Zrotation Xrotation Yrotation
                    JOINT RightFinger42
                    {
                      OFFSET 0.3574 -1.7166 -0.4742
                      CHANNELS 3 Zrotation Xrotation Yrotation
                      End Site
                      {
                        OFFSET 0.4187 -1.5237 -0.3496
                      }
                    }
                  }
                }
                JOINT RightFinger0
                {
                  OFFSET 1.4199 -1.8761 1.4221
                  CHANNELS 3 Zrotation Xrotation Yrotation
                  JOINT RightFinger01
                  {
                    OFFSET 1.1472 -3.4929 2.6336
                    CHANNELS 3 Zrotation Xrotation Yrotation
                    JOINT RightFinger02
                    {
                      OFFSET 0.8229 -2.3 1.6571
                      CHANNELS 3 Zrotation Xrotation Yrotation
                      End Site
                      {
                        OFFSET 0.5822 -1.6914 1.1582
                      }
                    }
                  }
                }
              }
            }
          }
        }
      }
    }
  }
  JOINT RightHip
  {
    OFFSET -9.412 3.9771 -0.7758
    CHANNELS 3 Zrotation Xrotation Yrotation
    JOINT RightKnee
    {
      OFFSET -0.7531 -40.938 0
      CHANNELS 3 Zrotation Xrotation Yrotation
      JOINT RightAnkle
      {
        OFFSET 0 -40.1986 0
        CHANNELS 3 Zrotation Xrotation Yrotation
        JOINT RightToe
        {
          OFFSET 0 -4.4182 9.239
          CHANNELS 3 Zrotation Xrotation Yrotation
          End Site
          {
            OFFSET 0 0 6.1981
          }
        }
      }
    }
  }
  JOINT LeftHip
  {
    OFFSET 9.4119 3.9773 -0.7758
    CHANNELS 3 Zrotation Xrotation Yrotation
    JOINT LeftKnee
    {
      OFFSET 0.7532 -40.9383 0
      CHANNELS 3 Zrotation Xrotation Yrotation
      JOINT LeftAnkle
      {
        OFFSET 0 -40.1986 0
        CHANNELS 3 Zrotation Xrotation Yrotation
        JOINT LeftToe
        {
          OFFSET 0 -4.4182 9.239
          CHANNELS 3 Zrotation Xrotation Yrotation
          End Site
          {
            OFFSET 0 0 6.1981
          }
        }
      }
    }
  }
}
MOTION
Frames:	5
Frame Time:	0.0333333
8.08686 4.24433 3.80787 90 1.21493e-008 1.84132e-008 -9.00558 -0.209664 0.065675 -18.0111 -0.427026 0.097722 -18.0112 -0.427026 0.0977223 -36.2682 25.2216 51.972 0.0499847 0.0342285 0.0482292 -7.99895 -0.048554 -12.2331 85.5613 50.9766 -18.1762 -123.487 -75.0679 -34.3048 -25.3227 4.96723 -2.18508 2.38542e-015 -6.36111e-015 5.1684e-015 3.97569e-015 -3.18055e-015 3.18055e-015 -7.95139e-016 0 3.97569e-016 2.38542e-015 -6.36111e-015 5.1684e-015 -0.0128116 0.00232629 8.8508e-005 -3.18055e-015 1.27222e-014 3.57812e-015 2.38542e-015 -6.36111e-015 5.1684e-015 -0.0160588 0.00300688 0.000859413 3.18055e-015 3.18055e-015 3.97569e-015 2.38542e-015 -6.36111e-015 5.1684e-015 -0.0125796 0.00312516 0.00282853 3.18055e-015 3.18055e-015 3.97569e-015 2.38542e-015 -6.36111e-015 5.1684e-015 3.97569e-015 -3.18055e-015 3.18055e-015 -7.95139e-016 0 3.97569e-016 7.13362 -0.0288675 7.03565 -64.4771 45.7076 2.23046 -169.154 -52.8828 -128.355 6.22433 1.27474 10.9045 7.95139e-016 0 -4.91992e-015 -7.95139e-016 0 -4.91992e-015 -7.95139e-016 7.95139e-016 1.44119e-015 7.95139e-016 0 -4.91992e-015 0.0129515 0.00231745 -9.0476e-005 1.59028e-015 -1.59028e-015 -1.07841e-014 7.95139e-016 0 -4.91992e-015 0.016332 0.00302994 -0.000873618 -1.63801e-006 -8.05395e-007 -6.29974e-006 7.95139e-016 0 -4.91992e-015 0.0145868 0.00367711 -0.00326443 -7.95139e-016 0 -1.44119e-015 7.95139e-016 0 -4.91992e-015 -7.95139e-016 0 -4.91992e-015 -7.95139e-016 7.95139e-016 1.44119e-015 -3.78824 -27.8277 -2.7987 4.14429 47.8218 -4.17996 -12.1766 34.2548 2.38486 1.78906e-015 3.18055e-015 1.39149e-015 12.7359 -43.3632 76.9703 -4.24496 57.1595 5.52774 13.6311 33.0208 -1.89279 -1.59028e-015 0 3.18055e-015 
8.08686 4.24433 3.80787 90 -3.05789e-008 2.47759e-009 -9.00559 -0.209664 0.065675 -18.0111 -0.427026 0.097722 -18.0112 -0.427026 0.0977221 -36.3416 25.2152 52.041 0.0497643 0.0340859 0.048008 -7.99896 -0.0485537 -12.2331 85.5614 50.9764 -18.1762 -123.428 -75.0675 -34.5925 -25.4441 4.98565 -2.16362 2.38542e-015 -6.36111e-015 -3.97569e-016 -8.82781e-032 -6.36111e-015 -7.95139e-016 -3.18055e-015 0 -7.95139e-016 2.38542e-015 -6.36111e-015 -3.97569e-016 -0.012831 0.00232289 8.59309e-005 -2.38542e-015 3.18055e-015 -2.38542e-015 2.38542e-015 -6.36111e-015 -3.97569e-016 -0.0160719 0.00298834 0.000855343 3.18055e-015 9.54166e-015 -6.36111e-015 2.38542e-015 -6.36111e-015 -3.97569e-016 -0.0126103 0.00312459 0.00283153 4.89916e-006 -2.23846e-006 -3.81192e-006 2.38542e-015 -6.36111e-015 -3.97569e-016 -8.82781e-032 -6.36111e-015 -7.95139e-016 -3.18055e-015 0 -7.95139e-016 7.13362 -0.0288675 7.03565 -64.4771 45.7077 2.23046 -169.155 -52.8827 -128.355 6.2245 1.27474 10.9045 -7.95139e-016 -1.59028e-015 -9.0944e-015 1.59028e-015 -7.95139e-016 -1.23246e-014 1.59028e-015 -7.95139e-016 -9.14409e-015 -7.95139e-016 -1.59028e-015 -9.0944e-015 0.0129392 0.00231149 -8.94508e-005 -1.69305e-006 1.56131e-006 -1.05781e-007 -7.95139e-016 -1.59028e-015 -9.0944e-015 0.0163409 0.00303649 -0.000877676 -7.63319e-006 -2.84452e-006 2.81748e-006 -7.95139e-016 -1.59028e-015 -9.0944e-015 0.0145733 0.00367392 -0.00326804 2.49928e-006 2.38572e-007 3.05932e-006 -7.95139e-016 -1.59028e-015 -9.0944e-015 1.59028e-015 -7.95139e-016 -1.23246e-014 1.59028e-015 -7.95139e-016 -9.14409e-015 -3.78824 -27.8279 -2.7987 4.14428 47.8219 -4.17996 -12.1766 34.2549 2.38487 -2.5842e-015 -3.18055e-015 -3.67752e-015 12.7359 -43.3632 76.9703 -4.24484 57.1594 5.52769 13.6311 33.0208 -1.8928 7.44967e-007 -1.29354e-006 1.31307e-006 
8.08686 4.24433 3.80787 90 -3.05789e-008 2.47759e-009 -9.00559 -0.209664 0.065675 -18.0111 -0.427026 0.097722 -18.0112 -0.427026 0.0977221 -36.415 25.2087 52.1099 0.04952 0.0339203 0.0477989 -7.99896 -0.0485537 -12.2331 85.5613 50.9762 -18.1762 -123.368 -75.0672 -34.8808 -25.5655 5.00394 -2.14209 -7.95139e-016 -6.36111e-015 3.97569e-015 -1.59028e-015 -1.27222e-014 6.75868e-015 3.97569e-015 -3.18055e-015 3.97569e-016 -7.95139e-016 -6.36111e-015 3.97569e-015 -0.0128292 0.00232505 8.04679e-005 7.95139e-016 0 -7.95139e-016 -7.95139e-016 -6.36111e-015 3.97569e-015 -0.0160372 0.00298219 0.000854461 -2.38542e-015 -3.18055e-015 -5.96354e-015 -7.95139e-016 -6.36111e-015 3.97569e-015 -0.0125897 0.00311924 0.00282942 1.59028e-015 -9.54166e-015 4.37326e-015 -7.95139e-016 -6.36111e-015 3.97569e-015 -1.59028e-015 -1.27222e-014 6.75868e-015 3.97569e-015 -3.18055e-015 3.97569e-016 7.13362 -0.0288675 7.03565 -64.4771 45.7077 2.23045 -169.155 -52.8828 -128.356 6.22467 1.27476 10.9045 -0 0 2.18663e-015 -2.08019e-006 -7.30191e-007 -4.87596e-006 -4.77083e-015 -1.19271e-015 -4.91992e-015 -0 0 2.18663e-015 0.012954 0.00230309 -8.4037e-005 2.13633e-006 -1.92079e-006 -1.31791e-006 -0 0 2.18663e-015 0.0163401 0.00302284 -0.000877606 2.55403e-006 6.20764e-006 -3.13487e-006 -0 0 2.18663e-015 0.0145643 0.00367024 -0.00326451 -7.95139e-016 -3.97569e-016 -1.98785e-016 -0 0 2.18663e-015 -2.08019e-006 -7.30191e-007 -4.87596e-006 -4.77083e-015 -1.19271e-015 -4.91992e-015 -3.78825 -27.8278 -2.79868 4.14427 47.8217 -4.17995 -12.1766 34.2548 2.38486 -1.27156e-005 -2.39261e-006 -2.70697e-007 12.7359 -43.3632 76.9703 -4.24489 57.1592 5.52769 13.6311 33.0208 -1.89278 3.18055e-015 -6.25594e-008 -1.27222e-014 
8.08686 4.24433 3.80787 90 -3.05789e-008 2.47759e-009 -9.00559 -0.209664 0.065675 -18.0111 -0.427026 0.097722 -18.0112 -0.427026 0.0977221 -36.4883 25.2022 52.1789 0.0493169 0.0337726 0.047567 -7.99896 -0.0485537 -12.2331 85.5614 50.9761 -18.1762 -123.309 -75.0669 -35.1695 -25.687 5.02225 -2.12057 -7.95139e-016 0 -2.78299e-015 3.18055e-015 6.36111e-015 3.97569e-016 1.59028e-015 6.36111e-015 3.97569e-016 -7.95139e-016 0 -2.78299e-015 -0.0128502 0.00232166 8.3116e-005 7.95139e-016 9.54166e-015 -5.1684e-015 -7.95139e-016 0 -2.78299e-015 -0.0160517 0.00299101 0.000858079 4.41391e-031 6.36111e-015 -3.97569e-015 -7.95139e-016 0 -2.78299e-015 -0.0125821 0.0031328 0.00282908 -7.95139e-016 -9.54166e-015 1.98785e-015 -7.95139e-016 0 -2.78299e-015 3.18055e-015 6.36111e-015 3.97569e-016 1.59028e-015 6.36111e-015 3.97569e-016 7.13362 -0.0288675 7.03565 -64.4771 45.7077 2.23045 -169.156 -52.8828 -128.356 6.22482 1.27481 10.9045 -7.95139e-016 -1.59028e-015 -5.46658e-016 -2.94364e-006 -4.75794e-010 -1.63511e-006 7.95139e-016 7.95139e-016 3.08116e-015 -7.95139e-016 -1.59028e-015 -5.46658e-016 0.0129676 0.00232131 -8.94316e-005 -2.99779e-006 -5.93609e-006 4.55871e-006 -7.95139e-016 -1.59028e-015 -5.46658e-016 0.0163358 0.00303135 -0.000878125 -1.59028e-015 -1.59028e-015 -7.50412e-015 -7.95139e-016 -1.59028e-015 -5.46658e-016 0.0145901 0.00366755 -0.0032613 -3.38607e-006 4.96696e-006 -2.11639e-007 -7.95139e-016 -1.59028e-015 -5.46658e-016 -2.94364e-006 -4.75794e-010 -1.63511e-006 7.95139e-016 7.95139e-016 3.08116e-015 -3.78825 -27.8279 -2.79868 4.14425 47.8217 -4.17993 -12.1766 34.2548 2.38483 -5.20703e-006 -5.82165e-006 -1.4666e-006 12.7359 -43.3632 76.9703 -4.24477 57.1591 5.5276 13.6311 33.0209 -1.89278 2.92191e-006 -3.14096e-006 -6.616e-007 
8.08686 4.24433 3.80787 90 -3.05789e-008 2.47759e-009 -9.00559 -0.209664 0.065675 -18.0111 -0.427026 0.097722 -18.0112 -0.427026 0.0977221 -36.5617 25.1955 52.2478 0.0490952 0.0336126 0.0473691 -7.99896 -0.0485537 -12.2331 85.5614 50.9759 -18.1762 -123.25 -75.0667 -35.4587 -25.8084 5.04048 -2.09897 -4.11877e-006 6.59134e-006 3.14752e-006 -6.5845e-006 -4.10098e-006 2.57284e-006 -3.98357e-007 3.58466e-007 1.62583e-006 -4.11877e-006 6.59134e-006 3.14752e-006 -0.0127897 0.00232848 9.40068e-005 6.52257e-006 -1.05608e-005 -5.35367e-006 -4.11877e-006 6.59134e-006 3.14752e-006 -0.0160308 0.0030013 0.000857377 -7.96428e-006 -5.23499e-006 1.05743e-005 -4.11877e-006 6.59134e-006 3.14752e-006 -0.0125635 0.00311993 0.00282521 -6.52269e-006 8.56546e-006 5.35304e-006 -4.11877e-006 6.59134e-006 3.14752e-006 -6.5845e-006 -4.10098e-006 2.57284e-006 -3.98357e-007 3.58466e-007 1.62583e-006 7.13362 -0.0288675 7.03565 -64.4771 45.7077 2.23046 -169.156 -52.8828 -128.357 6.22497 1.27481 10.9045 -1.59028e-015 -7.95139e-016 -4.07509e-015 4.42553e-007 -2.33732e-007 -1.42372e-006 -1.59028e-015 7.95139e-016 -1.63997e-015 -1.59028e-015 -7.95139e-016 -4.07509e-015 0.0129494 0.00230772 -8.89727e-005 4.60835e-006 8.97658e-006 4.83796e-006 -1.59028e-015 -7.95139e-016 -4.07509e-015 0.0163459 0.00303355 -0.000871362 1.59028e-015 1.19271e-015 2.98177e-016 -1.59028e-015 -7.95139e-016 -4.07509e-015 0.0145927 0.00367427 -0.003261 -8.02176e-006 3.33835e-006 -1.95293e-006 -1.59028e-015 -7.95139e-016 -4.07509e-015 4.42553e-007 -2.33732e-007 -1.42372e-006 -1.59028e-015 7.95139e-016 -1.63997e-015 -3.78824 -27.8276 -2.7987 4.14426 47.8214 -4.1799 -12.1766 34.2548 2.38484 -5.96354e-016 -1.59028e-014 -1.19271e-015 12.7358 -43.3632 76.9703 -4.24482 57.159 5.52762 13.6311 33.0208 -1.89277 1.59028e-015 9.54166e-015 9.54166e-015 
